Coordinates
version=1
nRows=7
nColumns=40
inDegrees=yes

Units are S.I. units (second, meters, Newtons, ...)
Angles are in degrees.

endheader
time	pelvis_tilt	pelvis_list	pelvis_rotation	pelvis_tx	pelvis_ty	pelvis_tz	hip_flexion_r	hip_adduction_r	hip_rotation_r	knee_angle_r	knee_angle_r_beta	ankle_angle_r	subtalar_angle_r	mtp_angle_r	hip_flexion_l	hip_adduction_l	hip_rotation_l	knee_angle_l	knee_angle_l_beta	ankle_angle_l	subtalar_angle_l	mtp_angle_l	lumbar_extension	lumbar_bending	lumbar_rotation	arm_flex_r	arm_add_r	arm_rot_r	elbow_flex_r	pro_sup_r	wrist_flex_r	wrist_dev_r	arm_flex_l	arm_add_l	arm_rot_l	elbow_flex_l	pro_sup_l	wrist_flex_l	wrist_dev_l
     23.46000000	     -1.96611811	     -4.34693651	      1.99824683	      1.07156524	      0.93010771	      0.48297004	     10.81709275	      1.29732071	    -14.35278406	     19.07992869	     19.07992869	     11.11814568	     -4.52269537	     -5.48463345	     27.59700827	    -13.37030795	     -0.07554211	     63.78384053	     63.78384053	      7.87071141	    -18.33260119	     11.49954830	    -10.84674687	      6.96134313	      3.66521281	     16.55596045	    -18.80794961	     -1.80487812	     50.38739508	     45.20236086	      0.00000000	      0.00000000	      2.66853862	    -10.79558144	     -8.05624052	     32.12637542	     45.10084977	      0.00000000	      0.00000000
     23.47342857	     -2.06992526	     -4.22643056	      2.43881006	      1.07026100	      0.93039106	      0.48415661	     10.38344334	      1.33142166	    -14.50129905	     18.66134957	     18.66134957	     11.27556251	     -4.77452581	     -5.45179531	     28.81613916	    -13.41815664	     -0.36924701	     61.99705510	     61.99705510	      8.27952156	    -18.72716291	     11.89793060	    -10.90925519	      6.67520228	      3.56457976	     17.19623044	    -18.63915267	     -1.80322664	     51.09914738	     45.18407496	      0.00000000	      0.00000000	      1.90885137	    -10.81558540	     -8.03361361	     31.55583828	     45.10251492	      0.00000000	      0.00000000
     23.48685714	     -2.23960514	     -4.13291504	      2.85040373	      1.06891103	      0.93046819	      0.48529045	     10.09183491	      1.36337499	    -14.67417343	     18.37328980	     18.37328980	     11.44851097	     -4.98300032	     -5.44809116	     29.98424426	    -13.49037932	     -0.79254406	     59.99907068	     59.99907068	      8.69521875	    -18.93732621	     12.23746087	    -10.90330410	      6.41914296	      3.73062169	     17.75763204	    -18.74787351	     -1.83315473	     51.52914371	     45.17437109	      0.00000000	      0.00000000	      1.25430113	    -10.71855851	     -8.00959497	     31.15899602	     45.09473373	      0.00000000	      0.00000000
     23.50028571	     -2.25653250	     -4.02785434	      3.33875421	      1.06774593	      0.93083515	      0.48631943	      9.47896750	      1.45621022	    -14.76767107	     17.78559046	     17.78559046	     11.53735183	     -5.36596509	     -5.42051599	     30.82061592	    -13.41751762	     -1.12406386	     57.72825380	     57.72825380	      9.30964206	    -19.07776496	     13.31117178	    -11.07342764	      6.15308737	      3.30933744	     18.40245539	    -18.33566086	     -1.63832598	     52.67241086	     45.13248210	      0.00000000	      0.00000000	      0.50953317	    -10.86576417	     -7.94345184	     30.26487665	     45.09360377	      0.00000000	      0.00000000
     23.51371429	     -2.38977184	     -3.95779731	      3.80397183	      1.06645518	      0.93090430	      0.48712789	      9.09507704	      1.53098210	    -14.89642770	     17.37043947	     17.37043947	     11.62134916	     -5.70513968	     -5.50811111	     31.69741990	    -13.25691314	     -1.40973176	     55.30025517	     55.30025517	      9.96162642	    -19.14926488	     14.48493670	    -11.12554480	      5.94615297	      3.25419464	     18.86350772	    -18.37212848	     -1.40919428	     53.64239132	     45.09619597	      0.00000000	      0.00000000	     -0.03993197	    -10.82251685	     -7.88643105	     29.54864099	     45.09887309	      0.00000000	      0.00000000
     23.52714286	     -2.55089038	     -4.12833906	      4.28730071	      1.06511934	      0.93056032	      0.48787047	      8.93951261	      1.78576105	    -15.21829114	     17.31959383	     17.31959383	     11.87551420	     -5.93582107	     -5.59381221	     32.60460847	    -13.25799618	     -1.52231392	     52.79057856	     52.79057856	     10.38709531	    -19.08204837	     14.78904020	    -11.08616555	      6.01047846	      3.55177695	     19.29189727	    -18.51969417	     -1.42614900	     53.91104105	     45.09038833	      0.00000000	      0.00000000	     -0.44726620	    -10.76082202	     -7.88491004	     29.34828374	     45.09477681	      0.00000000	      0.00000000
     23.54057143	     -2.72006742	     -3.85276772	      4.79351096	      1.06385321	      0.93080090	      0.48811873	      8.41298083	      1.65177292	    -15.35100674	     16.55236638	     16.55236638	     11.75099423	     -6.27505861	     -5.76843098	     33.14246400	    -12.54365998	     -1.64240934	     49.81939027	     49.81939027	     10.93064479	    -19.13160272	     16.17833577	    -11.17664358	      5.56857685	      3.09930779	     19.47804808	    -18.47869923	     -0.87591323	     55.92470966	     45.00996396	      0.00000000	      0.00000000	     -0.92267405	    -10.70959718	     -7.83261416	     28.28594678	     45.12424042	      0.00000000	      0.00000000
